<?xml version="1.0" encoding="iso-8859-1"?>
<!-- Generator: Adobe Illustrator 19.0.0, SVG Export Plug-In . SVG Version: 6.00 Build 0)  -->
<svg version="1.1" id="Capa_1" xmlns="http://www.w3.org/2000/svg" xmlns:xlink="http://www.w3.org/1999/xlink" x="0px" y="0px"
	 viewBox="0 0 512 512" style="enable-background:new 0 0 512 512;" xml:space="preserve">
<g>
	<g>
		<g>
			<path d="M478.968,445.935v-22.52c16.21-27.821,24.775-59.483,24.775-91.698v-1.396c0-33.61-16.054-65.718-42.942-85.884
				c-9.481-7.11-20.141-12.552-31.381-16.194V0H120.452L0,120.452v292.451h350.678l12.677,19.018v14.014h-33.032V512H512v-66.065
				H478.968z M450.89,257.651c22.751,17.062,36.336,44.23,36.336,72.671v1.396c0,30.001-8.158,59.466-23.593,85.19l-1.181,1.966
				v27.061h-82.581v-19.018l-9.348-14.013h58.897v-76.908l9.513,15.22l14.007-8.754l-26.74-42.776
				c-10.628-17.012-28.953-27.169-49.02-27.169h-13.824c-9.109,0-16.516-7.407-16.516-16.516c0-9.108,7.407-16.516,16.516-16.516
				h33.032C415.909,239.483,435.267,245.933,450.89,257.651z M140.388,49.548h239.484v99.097H49.549v-16.516h90.838V49.548z
				 M123.871,19.935v95.678H28.193L123.871,19.935z M16.517,396.387V132.129h16.515v33.032h363.355V33.032h-256V16.516h272.517
				v207.772c-5.458-0.858-10.975-1.321-16.516-1.321h-33.032c-18.217,0-33.032,14.815-33.032,33.032s14.815,33.032,33.032,33.032
				h13.824c14.328,0,27.416,7.251,35.014,19.407l0.71,1.123v86.825H16.517z M495.484,495.484H346.839v-33.032h16.516h115.613h16.516
				V495.484z"/>
			<path d="M132.129,181.677c-54.644,0-99.097,44.453-99.097,99.097s44.453,99.097,99.097,99.097s99.097-44.453,99.097-99.097
				S186.773,181.677,132.129,181.677z M132.129,363.355c-45.535,0-82.581-37.045-82.581-82.581
				c0-45.535,37.045-82.581,82.581-82.581s82.581,37.045,82.581,82.581C214.71,326.31,177.664,363.355,132.129,363.355z"/>
			<rect x="280.77" y="198.194" width="115.609" height="16.512"/>
			<rect x="247.738" y="198.194" width="16.512" height="16.512"/>
			<rect x="247.738" y="231.226" width="66.065" height="16.512"/>
			<rect x="247.738" y="264.258" width="66.065" height="16.512"/>
			<rect x="247.738" y="297.29" width="66.065" height="16.512"/>
			<rect x="247.738" y="330.323" width="66.065" height="16.512"/>
			<rect x="379.867" y="363.355" width="16.512" height="16.512"/>
			<rect x="247.738" y="363.355" width="115.609" height="16.512"/>
		</g>
	</g>
</g>
<g>
</g>
<g>
</g>
<g>
</g>
<g>
</g>
<g>
</g>
<g>
</g>
<g>
</g>
<g>
</g>
<g>
</g>
<g>
</g>
<g>
</g>
<g>
</g>
<g>
</g>
<g>
</g>
<g>
</g>
</svg>
